<svg width="31" height="22" viewBox="0 0 31 22" fill="none" xmlns="http://www.w3.org/2000/svg">
<path d="M26.0109 22C25.2036 22 24.5982 21.6583 24.1945 20.975C23.7909 20.2917 23.7667 19.5833 24.1219 18.85L26.4469 14H20.3438C19.5365 14 18.8503 13.7083 18.2852 13.125C17.7201 12.5417 17.4375 11.8333 17.4375 11V3C17.4375 2.16667 17.7201 1.45833 18.2852 0.875C18.8503 0.291667 19.5365 0 20.3438 0H28.0938C28.901 0 29.5872 0.291667 30.1523 0.875C30.7174 1.45833 31 2.16667 31 3V13.7C31 13.9333 30.9758 14.1667 30.9273 14.4C30.8789 14.6333 30.8063 14.85 30.7094 15.05L27.9 20.8C27.7385 21.1667 27.4883 21.4583 27.1492 21.675C26.8102 21.8917 26.4307 22 26.0109 22ZM8.57344 22C7.76615 22 7.16068 21.6583 6.75703 20.975C6.35339 20.2917 6.32917 19.5833 6.68438 18.85L9.00938 14H2.90625C2.09896 14 1.41276 13.7083 0.847656 13.125C0.282552 12.5417 0 11.8333 0 11V3C0 2.16667 0.282552 1.45833 0.847656 0.875C1.41276 0.291667 2.09896 0 2.90625 0H10.6562C11.4635 0 12.1497 0.291667 12.7148 0.875C13.2799 1.45833 13.5625 2.16667 13.5625 3V13.7C13.5625 13.9333 13.5383 14.1667 13.4898 14.4C13.4414 14.6333 13.3687 14.85 13.2719 15.05L10.4625 20.8C10.301 21.1667 10.0508 21.4583 9.71172 21.675C9.37266 21.8917 8.99323 22 8.57344 22Z" fill="url(#paint0_linear_130_625)"/>
<defs>
<linearGradient id="paint0_linear_130_625" x1="15.5" y1="0" x2="15.5" y2="22" gradientUnits="userSpaceOnUse">
<stop stop-color="#008636"/>
<stop offset="1" stop-color="#008636"/>
</linearGradient>
</defs>
</svg>
