<svg width="18" height="18" viewBox="0 0 18 18" fill="none" xmlns="http://www.w3.org/2000/svg">
<path d="M8.83332 2.44269C11.0584 2.44269 11.322 2.45119 12.2007 2.49139C13.0132 2.52858 13.4544 2.66472 13.7481 2.77914C14.137 2.93074 14.4147 3.11187 14.7063 3.40429C14.9979 3.69671 15.1785 3.97513 15.3296 4.36519C15.4437 4.6597 15.5795 5.1022 15.6166 5.91697C15.6567 6.79822 15.6651 7.06251 15.6651 9.29395C15.6651 11.5254 15.6567 11.7897 15.6166 12.6709C15.5795 13.4857 15.4437 13.9282 15.3296 14.2227C15.1785 14.6128 14.9979 14.8912 14.7063 15.1836C14.4147 15.476 14.137 15.6572 13.7481 15.8087C13.4544 15.9232 13.0132 16.0593 12.2007 16.0965C11.3221 16.1367 11.0586 16.1452 8.83332 16.1452C6.60808 16.1452 6.34454 16.1367 5.46595 16.0965C4.65346 16.0593 4.21222 15.9232 3.91857 15.8087C3.52959 15.6572 3.25196 15.476 2.96037 15.1836C2.66877 14.8912 2.48816 14.6128 2.33702 14.2227C2.2229 13.9282 2.08714 13.4857 2.05006 12.6709C2.00997 11.7897 2.0015 11.5254 2.0015 9.29395C2.0015 7.06251 2.00997 6.79822 2.05006 5.917C2.08714 5.1022 2.2229 4.6597 2.33702 4.36519C2.48816 3.97513 2.66877 3.69671 2.96037 3.40429C3.25196 3.11187 3.52959 2.93074 3.91857 2.77914C4.21222 2.66472 4.65346 2.52858 5.46592 2.49139C6.34467 2.45119 6.60821 2.44269 8.83332 2.44269ZM8.83332 0.93689C6.5701 0.93689 6.28635 0.94651 5.39751 0.98718C4.51049 1.02778 3.90474 1.16904 3.37465 1.37564C2.82666 1.58921 2.36193 1.87496 1.89866 2.33956C1.43538 2.80415 1.15044 3.2702 0.937473 3.81975C0.731455 4.35135 0.590604 4.95882 0.550115 5.84837C0.50956 6.7397 0.5 7.02429 0.5 9.29395C0.5 11.5636 0.50956 11.8482 0.550115 12.7395C0.590604 13.6291 0.731455 14.2365 0.937473 14.7681C1.15044 15.3177 1.43538 15.7837 1.89866 16.2483C2.36193 16.7129 2.82666 16.9987 3.37465 17.2123C3.90474 17.4189 4.51049 17.5601 5.39751 17.6007C6.28635 17.6414 6.5701 17.651 8.83332 17.651C11.0965 17.651 11.3803 17.6414 12.2691 17.6007C13.1561 17.5601 13.7619 17.4189 14.292 17.2123C14.84 16.9987 15.3047 16.7129 15.768 16.2483C16.2313 15.7837 16.5162 15.3177 16.7292 14.7681C16.9352 14.2365 17.076 13.6291 17.1165 12.7395C17.1571 11.8482 17.1667 11.5636 17.1667 9.29395C17.1667 7.02429 17.1571 6.7397 17.1165 5.84837C17.076 4.95882 16.9352 4.35135 16.7292 3.81975C16.5162 3.2702 16.2313 2.80415 15.768 2.33956C15.3047 1.87496 14.84 1.58921 14.292 1.37564C13.7619 1.16904 13.1561 1.02778 12.2691 0.98718C11.3803 0.94651 11.0965 0.93689 8.83332 0.93689ZM8.83332 5.00248C6.46994 5.00248 4.55402 6.92385 4.55402 9.29395C4.55402 11.664 6.46994 13.5854 8.83332 13.5854C11.1967 13.5854 13.1126 11.664 13.1126 9.29395C13.1126 6.92385 11.1967 5.00248 8.83332 5.00248ZM8.83332 12.0796C7.2992 12.0796 6.05552 10.8324 6.05552 9.29395C6.05552 7.75547 7.2992 6.50825 8.83332 6.50825C10.3674 6.50825 11.6111 7.75547 11.6111 9.29395C11.6111 10.8324 10.3674 12.0796 8.83332 12.0796ZM14.2817 4.83293C14.2817 5.38679 13.834 5.83579 13.2817 5.83579C12.7294 5.83579 12.2817 5.38679 12.2817 4.83293C12.2817 4.27907 12.7294 3.8301 13.2817 3.8301C13.834 3.8301 14.2817 4.27907 14.2817 4.83293Z" fill="#B7EECD"/>
</svg>
