<svg width="17" height="17" viewBox="0 0 17 17" fill="none" xmlns="http://www.w3.org/2000/svg">
<path d="M8.33332 1.5058C10.5584 1.5058 10.822 1.5143 11.7007 1.5545C12.5132 1.59169 12.9544 1.72783 13.2481 1.84225C13.637 1.99385 13.9147 2.17498 14.2063 2.4674C14.4979 2.75982 14.6785 3.03825 14.8296 3.4283C14.9437 3.72281 15.0795 4.16531 15.1166 4.98008C15.1567 5.86133 15.1651 6.12562 15.1651 8.35706C15.1651 10.5885 15.1567 10.8528 15.1166 11.734C15.0795 12.5488 14.9437 12.9913 14.8296 13.2858C14.6785 13.6759 14.4979 13.9543 14.2063 14.2467C13.9147 14.5391 13.637 14.7203 13.2481 14.8718C12.9544 14.9863 12.5132 15.1224 11.7007 15.1596C10.8221 15.1998 10.5586 15.2083 8.33332 15.2083C6.10808 15.2083 5.84454 15.1998 4.96595 15.1596C4.15346 15.1224 3.71222 14.9863 3.41857 14.8718C3.02959 14.7203 2.75196 14.5391 2.46037 14.2467C2.16877 13.9543 1.98816 13.6759 1.83702 13.2858C1.7229 12.9913 1.58714 12.5488 1.55006 11.734C1.50997 10.8528 1.5015 10.5885 1.5015 8.35706C1.5015 6.12562 1.50997 5.86133 1.55006 4.98011C1.58714 4.16531 1.7229 3.72281 1.83702 3.4283C1.98816 3.03825 2.16877 2.75982 2.46037 2.4674C2.75196 2.17498 3.02959 1.99385 3.41857 1.84225C3.71222 1.72783 4.15346 1.59169 4.96592 1.5545C5.84467 1.5143 6.10821 1.5058 8.33332 1.5058ZM8.33332 0C6.0701 0 5.78635 0.00962027 4.89751 0.0502908C4.01049 0.0908949 3.40474 0.232147 2.87465 0.43875C2.32666 0.65232 1.86193 0.938075 1.39866 1.40267C0.935381 1.86726 0.650437 2.33331 0.437473 2.88286C0.231455 3.41446 0.090604 4.02193 0.050115 4.91148C0.00955989 5.80281 0 6.0874 0 8.35706C0 10.6267 0.00955989 10.9113 0.050115 11.8026C0.090604 12.6922 0.231455 13.2996 0.437473 13.8313C0.650437 14.3808 0.935381 14.8469 1.39866 15.3114C1.86193 15.776 2.32666 16.0618 2.87465 16.2754C3.40474 16.482 4.01049 16.6232 4.89751 16.6638C5.78635 16.7045 6.0701 16.7141 8.33332 16.7141C10.5965 16.7141 10.8803 16.7045 11.7691 16.6638C12.6561 16.6232 13.2619 16.482 13.792 16.2754C14.34 16.0618 14.8047 15.776 15.268 15.3114C15.7313 14.8469 16.0162 14.3808 16.2292 13.8313C16.4352 13.2996 16.576 12.6922 16.6165 11.8026C16.6571 10.9113 16.6667 10.6267 16.6667 8.35706C16.6667 6.0874 16.6571 5.80281 16.6165 4.91148C16.576 4.02193 16.4352 3.41446 16.2292 2.88286C16.0162 2.33331 15.7313 1.86726 15.268 1.40267C14.8047 0.938075 14.34 0.65232 13.792 0.43875C13.2619 0.232147 12.6561 0.0908949 11.7691 0.0502908C10.8803 0.00962027 10.5965 0 8.33332 0ZM8.33332 4.06559C5.96994 4.06559 4.05402 5.98696 4.05402 8.35706C4.05402 10.7272 5.96994 12.6485 8.33332 12.6485C10.6967 12.6485 12.6126 10.7272 12.6126 8.35706C12.6126 5.98696 10.6967 4.06559 8.33332 4.06559ZM8.33332 11.1428C6.7992 11.1428 5.55552 9.89554 5.55552 8.35706C5.55552 6.81858 6.7992 5.57136 8.33332 5.57136C9.86743 5.57136 11.1111 6.81858 11.1111 8.35706C11.1111 9.89554 9.86743 11.1428 8.33332 11.1428ZM13.7817 3.89604C13.7817 4.4499 13.334 4.8989 12.7817 4.8989C12.2294 4.8989 11.7817 4.4499 11.7817 3.89604C11.7817 3.34218 12.2294 2.89321 12.7817 2.89321C13.334 2.89321 13.7817 3.34218 13.7817 3.89604Z" fill="white"/>
</svg>
