<svg width="17" height="22" viewBox="0 0 17 22" fill="none" xmlns="http://www.w3.org/2000/svg">
<path d="M8.43 13.4106C9.32134 13.4106 10.1251 13.2019 10.8414 12.7845C11.5577 12.3671 12.1326 11.8105 12.5661 11.1149C11.9765 10.6627 11.333 10.3236 10.6355 10.0975C9.93812 9.87139 9.20108 9.75835 8.42441 9.75835C7.64774 9.75835 6.91256 9.87139 6.21887 10.0975C5.52518 10.3236 4.88352 10.6627 4.29389 11.1149C4.72744 11.8105 5.30234 12.3671 6.01859 12.7845C6.73486 13.2019 7.53866 13.4106 8.43 13.4106ZM8.43231 8.19311C8.9337 8.19311 9.36214 8.01407 9.71766 7.656C10.0732 7.29794 10.2509 6.8675 10.2509 6.36468C10.2509 5.86187 10.0724 5.4322 9.71534 5.07568C9.3583 4.71915 8.92908 4.54089 8.42769 4.54089C7.9263 4.54089 7.49786 4.71992 7.14234 5.078C6.78683 5.43606 6.60907 5.8665 6.60907 6.36932C6.60907 6.87213 6.7876 7.30179 7.14466 7.65832C7.5017 8.01485 7.93092 8.19311 8.43231 8.19311ZM8.43 18.7715C10.7007 16.6948 12.378 14.8113 13.4619 13.1209C14.5458 11.4304 15.0877 9.94372 15.0877 8.66067C15.0877 6.64378 14.4452 4.99233 13.1602 3.70633C11.8751 2.42033 10.2989 1.77733 8.4314 1.77733C6.56394 1.77733 4.98723 2.42046 3.70125 3.70672C2.41527 4.99298 1.77229 6.64475 1.77229 8.66203C1.77229 9.94603 2.3273 11.4322 3.43732 13.1206C4.54732 14.8089 6.21155 16.6925 8.43 18.7715ZM8.43 21.1131C5.60473 18.7014 3.49341 16.4623 2.09605 14.3958C0.698683 12.3294 0 10.4181 0 8.66187C0 6.02105 0.847331 3.9172 2.54199 2.35031C4.23666 0.783436 6.19913 0 8.42943 0C10.6597 0 12.6224 0.783436 14.3174 2.35031C16.0125 3.9172 16.86 6.02105 16.86 8.66187C16.86 10.4181 16.1613 12.3294 14.764 14.3958C13.3666 16.4623 11.2553 18.7014 8.43 21.1131Z" fill="white"/>
</svg>
