<svg width="105" height="19" viewBox="0 0 105 19" fill="none" xmlns="http://www.w3.org/2000/svg">
<path d="M9.96234 15.6001L4.92986 18.6304C4.78556 18.7206 4.63224 18.7612 4.4699 18.7522C4.30756 18.7432 4.16326 18.6936 4.037 18.6034C3.91074 18.5132 3.81604 18.3959 3.75291 18.2516C3.68978 18.1073 3.67625 17.945 3.71232 17.7646L5.03809 12.0287L0.600845 8.15962C0.456544 8.03335 0.370866 7.89356 0.343809 7.74024C0.316753 7.58692 0.321262 7.43811 0.357338 7.29381C0.393413 7.14951 0.474582 7.02776 0.600845 6.92855C0.727108 6.82935 0.880427 6.77072 1.0608 6.75269L6.93203 6.23862L9.20476 0.827346C9.27691 0.665008 9.38514 0.543255 9.52944 0.462086C9.67374 0.380917 9.81804 0.340332 9.96234 0.340332C10.1066 0.340332 10.2509 0.380917 10.3952 0.462086C10.5395 0.543255 10.6478 0.665008 10.7199 0.827346L12.9927 6.23862L18.8639 6.75269C19.0443 6.77072 19.1976 6.82935 19.3238 6.92855C19.4501 7.02776 19.5313 7.14951 19.5673 7.29381C19.6034 7.43811 19.6079 7.58692 19.5809 7.74024C19.5538 7.89356 19.4681 8.03335 19.3238 8.15962L14.8866 12.0287L16.2124 17.7646C16.2484 17.945 16.2349 18.1073 16.1718 18.2516C16.1086 18.3959 16.0139 18.5132 15.8877 18.6034C15.7614 18.6936 15.6171 18.7432 15.4548 18.7522C15.2924 18.7612 15.1391 18.7206 14.9948 18.6304L9.96234 15.6001Z" fill="url(#paint0_linear_54_618)"/>
<path d="M31.6233 15.6001L26.5908 18.6304C26.4465 18.7206 26.2932 18.7612 26.1308 18.7522C25.9685 18.7432 25.8242 18.6936 25.6979 18.6034C25.5717 18.5132 25.477 18.3959 25.4138 18.2516C25.3507 18.1073 25.3372 17.945 25.3733 17.7646L26.699 12.0287L22.2618 8.15962C22.1175 8.03335 22.0318 7.89356 22.0047 7.74024C21.9777 7.58692 21.9822 7.43811 22.0183 7.29381C22.0543 7.14951 22.1355 7.02776 22.2618 6.92855C22.388 6.82935 22.5414 6.77072 22.7217 6.75269L28.593 6.23862L30.8657 0.827346C30.9378 0.665008 31.0461 0.543255 31.1904 0.462086C31.3347 0.380917 31.479 0.340332 31.6233 0.340332C31.7676 0.340332 31.9119 0.380917 32.0562 0.462086C32.2005 0.543255 32.3087 0.665008 32.3809 0.827346L34.6536 6.23862L40.5248 6.75269C40.7052 6.77072 40.8585 6.82935 40.9848 6.92855C41.111 7.02776 41.1922 7.14951 41.2283 7.29381C41.2644 7.43811 41.2689 7.58692 41.2418 7.74024C41.2148 7.89356 41.1291 8.03335 40.9848 8.15962L36.5475 12.0287L37.8733 17.7646C37.9094 17.945 37.8958 18.1073 37.8327 18.2516C37.7696 18.3959 37.6749 18.5132 37.5486 18.6034C37.4224 18.6936 37.2781 18.7432 37.1157 18.7522C36.9534 18.7612 36.8001 18.7206 36.6558 18.6304L31.6233 15.6001Z" fill="url(#paint1_linear_54_618)"/>
<path d="M52.8191 15.6001L47.7866 18.6304C47.6423 18.7206 47.489 18.7612 47.3267 18.7522C47.1643 18.7432 47.02 18.6936 46.8938 18.6034C46.7675 18.5132 46.6728 18.3959 46.6097 18.2516C46.5466 18.1073 46.533 17.945 46.5691 17.7646L47.8949 12.0287L43.4576 8.15962C43.3133 8.03335 43.2276 7.89356 43.2006 7.74024C43.1735 7.58692 43.178 7.43811 43.2141 7.29381C43.2502 7.14951 43.3314 7.02776 43.4576 6.92855C43.5839 6.82935 43.7372 6.77072 43.9176 6.75269L49.7888 6.23862L52.0615 0.827346C52.1337 0.665008 52.2419 0.543255 52.3862 0.462086C52.5305 0.380917 52.6748 0.340332 52.8191 0.340332C52.9634 0.340332 53.1077 0.380917 53.252 0.462086C53.3963 0.543255 53.5045 0.665008 53.5767 0.827346L55.8494 6.23862L61.7207 6.75269C61.901 6.77072 62.0544 6.82935 62.1806 6.92855C62.3069 7.02776 62.3881 7.14951 62.4241 7.29381C62.4602 7.43811 62.4647 7.58692 62.4377 7.74024C62.4106 7.89356 62.3249 8.03335 62.1806 8.15962L57.7434 12.0287L59.0691 17.7646C59.1052 17.945 59.0917 18.1073 59.0286 18.2516C58.9654 18.3959 58.8707 18.5132 58.7445 18.6034C58.6182 18.6936 58.4739 18.7432 58.3116 18.7522C58.1492 18.7612 57.9959 18.7206 57.8516 18.6304L52.8191 15.6001Z" fill="url(#paint2_linear_54_618)"/>
<path d="M74.015 15.6001L68.9825 18.6304C68.8382 18.7206 68.6849 18.7612 68.5225 18.7522C68.3602 18.7432 68.2159 18.6936 68.0896 18.6034C67.9633 18.5132 67.8687 18.3959 67.8055 18.2516C67.7424 18.1073 67.7289 17.945 67.7649 17.7646L69.0907 12.0287L64.6535 8.15962C64.5092 8.03335 64.4235 7.89356 64.3964 7.74024C64.3694 7.58692 64.3739 7.43811 64.4099 7.29381C64.446 7.14951 64.5272 7.02776 64.6535 6.92855C64.7797 6.82935 64.933 6.77072 65.1134 6.75269L70.9846 6.23862L73.2574 0.827346C73.3295 0.665008 73.4378 0.543255 73.5821 0.462086C73.7264 0.380917 73.8707 0.340332 74.015 0.340332C74.1593 0.340332 74.3036 0.380917 74.4479 0.462086C74.5922 0.543255 74.7004 0.665008 74.7725 0.827346L77.0453 6.23862L82.9165 6.75269C83.0969 6.77072 83.2502 6.82935 83.3764 6.92855C83.5027 7.02776 83.5839 7.14951 83.62 7.29381C83.656 7.43811 83.6605 7.58692 83.6335 7.74024C83.6064 7.89356 83.5208 8.03335 83.3764 8.15962L78.9392 12.0287L80.265 17.7646C80.301 17.945 80.2875 18.1073 80.2244 18.2516C80.1613 18.3959 80.0666 18.5132 79.9403 18.6034C79.814 18.6936 79.6697 18.7432 79.5074 18.7522C79.3451 18.7612 79.1917 18.7206 79.0474 18.6304L74.015 15.6001Z" fill="url(#paint3_linear_54_618)"/>
<path d="M95.2108 15.6001L90.1783 18.6304C90.034 18.7206 89.8807 18.7612 89.7184 18.7522C89.556 18.7432 89.4117 18.6936 89.2855 18.6034C89.1592 18.5132 89.0645 18.3959 89.0014 18.2516C88.9382 18.1073 88.9247 17.945 88.9608 17.7646L90.2865 12.0287L85.8493 8.15962C85.705 8.03335 85.6193 7.89356 85.5923 7.74024C85.5652 7.58692 85.5697 7.43811 85.6058 7.29381C85.6419 7.14951 85.723 7.02776 85.8493 6.92855C85.9756 6.82935 86.1289 6.77072 86.3093 6.75269L92.1805 6.23862L94.4532 0.827346C94.5254 0.665008 94.6336 0.543255 94.7779 0.462086C94.9222 0.380917 95.0665 0.340332 95.2108 0.340332C95.3551 0.340332 95.4994 0.380917 95.6437 0.462086C95.788 0.543255 95.8962 0.665008 95.9684 0.827346L98.2411 6.23862L104.112 6.75269C104.293 6.77072 104.446 6.82935 104.572 6.92855C104.699 7.02776 104.78 7.14951 104.816 7.29381C104.852 7.43811 104.856 7.58692 104.829 7.74024C104.802 7.89356 104.717 8.03335 104.572 8.15962L100.135 12.0287L101.461 17.7646C101.497 17.945 101.483 18.1073 101.42 18.2516C101.357 18.3959 101.262 18.5132 101.136 18.6034C101.01 18.6936 100.866 18.7432 100.703 18.7522C100.541 18.7612 100.388 18.7206 100.243 18.6304L95.2108 15.6001Z" fill="url(#paint4_linear_54_618)"/>
<defs>
<linearGradient id="paint0_linear_54_618" x1="9.96234" y1="0.340332" x2="9.96234" y2="18.7534" gradientUnits="userSpaceOnUse">
<stop stop-color="#FFB321"/>
<stop offset="1" stop-color="#FF9900"/>
</linearGradient>
<linearGradient id="paint1_linear_54_618" x1="31.6233" y1="0.340332" x2="31.6233" y2="18.7534" gradientUnits="userSpaceOnUse">
<stop stop-color="#FFB321"/>
<stop offset="1" stop-color="#FF9900"/>
</linearGradient>
<linearGradient id="paint2_linear_54_618" x1="52.8191" y1="0.340332" x2="52.8191" y2="18.7534" gradientUnits="userSpaceOnUse">
<stop stop-color="#FFB321"/>
<stop offset="1" stop-color="#FF9900"/>
</linearGradient>
<linearGradient id="paint3_linear_54_618" x1="74.015" y1="0.340332" x2="74.015" y2="18.7534" gradientUnits="userSpaceOnUse">
<stop stop-color="#FFB321"/>
<stop offset="1" stop-color="#FF9900"/>
</linearGradient>
<linearGradient id="paint4_linear_54_618" x1="95.2108" y1="0.340332" x2="95.2108" y2="18.7534" gradientUnits="userSpaceOnUse">
<stop stop-color="#FFB321"/>
<stop offset="1" stop-color="#FF9900"/>
</linearGradient>
</defs>
</svg>
