<svg width="35" height="35" viewBox="0 0 35 35" fill="none" xmlns="http://www.w3.org/2000/svg">
<path d="M30.8409 15.4196L30.702 14.8416H17.8969V20.1584H25.5478C24.7534 23.8589 21.0674 25.8067 18.0566 25.8067C15.8659 25.8067 13.5566 24.9027 12.0281 23.4496C11.2217 22.6708 10.5798 21.7435 10.1392 20.7209C9.69852 19.6983 9.4678 18.6005 9.4602 17.4904C9.4602 15.2508 10.4861 13.0106 11.979 11.5371C13.4718 10.0635 15.7264 9.23908 17.9681 9.23908C20.5354 9.23908 22.3754 10.5764 23.0634 11.1863L26.9147 7.42804C25.7849 6.45411 22.6813 4 17.844 4C14.1119 4 10.5334 5.40243 7.91761 7.9602C5.33618 10.4788 4 14.1208 4 17.5C4 20.8792 5.2643 24.3392 7.76587 26.8777C10.4388 29.5849 14.2244 31 18.1223 31C21.6689 31 25.0305 29.6367 27.4264 27.1633C29.7818 24.7285 31 21.3596 31 17.8279C31 16.341 30.8476 15.4581 30.8409 15.4196Z" fill="#F4F5FF"/>
<circle cx="17.5" cy="17.5" r="17" stroke="#F4F5FF"/>
</svg>
