<svg width="377" height="377" viewBox="0 0 377 377" fill="none" xmlns="http://www.w3.org/2000/svg">
<path d="M273.508 223.062C272.778 222.682 245.456 208.091 240.601 206.197C238.619 205.425 236.496 204.671 234.238 204.671C230.549 204.671 227.449 206.665 225.035 210.582C222.306 214.981 214.044 225.455 211.492 228.584C211.158 228.997 210.703 229.49 210.43 229.49C210.186 229.49 205.957 227.602 204.677 226.999C175.368 213.192 153.122 179.99 150.071 174.391C149.635 173.586 149.617 173.221 149.613 173.221C149.72 172.795 150.706 171.723 151.215 171.171C152.703 169.574 154.316 167.469 155.875 165.433C156.614 164.469 157.354 163.503 158.08 162.592C160.343 159.737 161.351 157.519 162.519 154.951L163.131 153.617C165.983 147.471 163.547 142.286 162.76 140.611C162.113 139.21 150.577 109.015 149.351 105.843C146.401 98.1878 142.504 94.6236 137.088 94.6236C136.585 94.6236 137.088 94.6236 134.98 94.7196C132.414 94.8371 118.439 96.832 112.261 101.057C105.708 105.537 94.623 119.817 94.623 144.932C94.623 167.535 107.85 188.877 113.528 196.994C113.67 197.199 113.929 197.614 114.305 198.211C136.053 232.655 163.164 258.181 190.648 270.088C217.107 281.55 229.636 282.875 236.759 282.875H236.761C239.754 282.875 242.15 282.62 244.264 282.394L245.604 282.256C254.745 281.377 274.832 270.089 279.4 256.319C283 245.473 283.949 233.623 281.554 229.323C279.914 226.397 277.087 224.925 273.508 223.062Z" fill="#F4F5FF"/>
<path d="M192.091 0.497803C90.1223 0.497803 7.16463 82.8319 7.16463 184.034C7.16463 216.766 15.9242 248.807 32.519 276.849L0.756744 370.541C0.164783 372.287 0.605261 374.219 1.89728 375.534C2.83045 376.487 4.09526 377 5.38728 377C5.88217 377 6.38074 376.926 6.86755 376.77L104.563 345.725C131.296 360.009 161.512 367.549 192.092 367.549C294.051 367.551 377 285.225 377 184.034C377 82.8319 294.051 0.497803 192.091 0.497803ZM192.091 329.319C163.317 329.319 135.447 321.01 111.49 305.29C110.685 304.76 109.75 304.489 108.808 304.489C108.311 304.489 107.812 304.565 107.327 304.719L58.3873 320.275L74.1857 273.666C74.6968 272.158 74.4409 270.494 73.4996 269.208C55.2562 244.281 45.6127 214.829 45.6127 184.034C45.6127 103.913 111.322 38.7297 192.089 38.7297C272.846 38.7297 338.548 103.913 338.548 184.034C338.55 264.145 272.849 329.319 192.091 329.319Z" fill="#F4F5FF"/>
</svg>
