<svg width="79" height="65" viewBox="0 0 79 65" fill="none" xmlns="http://www.w3.org/2000/svg">
<path d="M0 3.5C0 1.567 1.567 0 3.5 0C5.433 0 7 1.567 7 3.5C7 5.433 5.433 7 3.5 7C1.567 7 0 5.433 0 3.5Z" fill="#D9D9D9"/>
<path d="M24 3.5C24 1.567 25.567 0 27.5 0C29.433 0 31 1.567 31 3.5C31 5.433 29.433 7 27.5 7C25.567 7 24 5.433 24 3.5Z" fill="#D9D9D9"/>
<path d="M48 3.5C48 1.567 49.567 0 51.5 0C53.433 0 55 1.567 55 3.5C55 5.433 53.433 7 51.5 7C49.567 7 48 5.433 48 3.5Z" fill="#D9D9D9"/>
<path d="M72 3.5C72 1.567 73.567 0 75.5 0C77.433 0 79 1.567 79 3.5C79 5.433 77.433 7 75.5 7C73.567 7 72 5.433 72 3.5Z" fill="#D9D9D9"/>
<path d="M0 32.5C0 30.567 1.567 29 3.5 29C5.433 29 7 30.567 7 32.5C7 34.433 5.433 36 3.5 36C1.567 36 0 34.433 0 32.5Z" fill="#D9D9D9"/>
<path d="M24 32.5C24 30.567 25.567 29 27.5 29C29.433 29 31 30.567 31 32.5C31 34.433 29.433 36 27.5 36C25.567 36 24 34.433 24 32.5Z" fill="#D9D9D9"/>
<path d="M48 32.5C48 30.567 49.567 29 51.5 29C53.433 29 55 30.567 55 32.5C55 34.433 53.433 36 51.5 36C49.567 36 48 34.433 48 32.5Z" fill="#D9D9D9"/>
<path d="M72 32.5C72 30.567 73.567 29 75.5 29C77.433 29 79 30.567 79 32.5C79 34.433 77.433 36 75.5 36C73.567 36 72 34.433 72 32.5Z" fill="#D9D9D9"/>
<path d="M0 61.5C0 59.567 1.567 58 3.5 58C5.433 58 7 59.567 7 61.5C7 63.433 5.433 65 3.5 65C1.567 65 0 63.433 0 61.5Z" fill="#D9D9D9"/>
<path d="M24 61.5C24 59.567 25.567 58 27.5 58C29.433 58 31 59.567 31 61.5C31 63.433 29.433 65 27.5 65C25.567 65 24 63.433 24 61.5Z" fill="#D9D9D9"/>
<path d="M48 61.5C48 59.567 49.567 58 51.5 58C53.433 58 55 59.567 55 61.5C55 63.433 53.433 65 51.5 65C49.567 65 48 63.433 48 61.5Z" fill="#D9D9D9"/>
<path d="M72 61.5C72 59.567 73.567 58 75.5 58C77.433 58 79 59.567 79 61.5C79 63.433 77.433 65 75.5 65C73.567 65 72 63.433 72 61.5Z" fill="#D9D9D9"/>
</svg>
