<svg width="17" height="17" viewBox="0 0 17 17" fill="none" xmlns="http://www.w3.org/2000/svg">
<path d="M12.4739 9.71466C12.441 9.69884 11.212 9.09193 10.9936 9.01311C10.9045 8.98102 10.8089 8.94965 10.7074 8.94965C10.5414 8.94965 10.402 9.03259 10.2934 9.19552C10.1706 9.37851 9.799 9.81418 9.68418 9.94434C9.66917 9.96152 9.64872 9.98205 9.63644 9.98205C9.62544 9.98205 9.43523 9.9035 9.37764 9.87844C8.05923 9.30412 7.05853 7.92302 6.92129 7.69013C6.9017 7.65665 6.90088 7.64146 6.90071 7.64146C6.90552 7.62372 6.94987 7.57915 6.97276 7.55617C7.0397 7.48976 7.11223 7.40219 7.1824 7.3175C7.21562 7.27738 7.24891 7.23719 7.28157 7.19932C7.38338 7.08054 7.42869 6.98832 7.48124 6.8815L7.50877 6.82599C7.63708 6.57035 7.5275 6.35466 7.49207 6.28499C7.463 6.22671 6.94408 4.97069 6.88889 4.83874C6.7562 4.52033 6.5809 4.37207 6.33728 4.37207C6.31466 4.37207 6.33728 4.37207 6.24248 4.37607C6.12704 4.38095 5.49841 4.46393 5.22048 4.63966C4.92572 4.82603 4.42708 5.42003 4.42708 6.46472C4.42708 7.40493 5.02206 8.29268 5.27751 8.63031C5.28386 8.63883 5.29552 8.6561 5.31244 8.68093C6.29072 10.1137 7.51028 11.1755 8.74657 11.6708C9.93679 12.1475 10.5004 12.2027 10.8208 12.2027C10.8209 12.2027 10.8209 12.2027 10.8209 12.2027C10.9555 12.2027 11.0633 12.1921 11.1584 12.1827L11.2187 12.1769C11.6298 12.1403 12.5334 11.6708 12.7389 11.098C12.9008 10.6469 12.9435 10.154 12.8358 9.97509C12.762 9.85337 12.6349 9.79216 12.4739 9.71466Z" fill="white"/>
<path d="M8.57882 0C4.01305 0 0.298517 3.6971 0.298517 8.24142C0.298517 9.71121 0.690737 11.15 1.43379 12.4092L0.0115965 16.6162C-0.0149093 16.6947 0.00481362 16.7814 0.0626654 16.8405C0.104449 16.8832 0.161082 16.9063 0.218934 16.9063C0.241094 16.9063 0.263418 16.903 0.285215 16.896L4.65962 15.502C5.85666 16.1433 7.20961 16.4819 8.57886 16.4819C13.1442 16.482 16.8583 12.7853 16.8583 8.24142C16.8583 3.6971 13.1442 0 8.57882 0ZM8.57882 14.7652C7.29041 14.7652 6.04253 14.3921 4.96982 13.6862C4.93377 13.6625 4.89189 13.6503 4.84974 13.6503C4.82745 13.6503 4.80513 13.6537 4.78339 13.6606L2.59207 14.3592L3.29947 12.2662C3.32235 12.1985 3.31089 12.1238 3.26875 12.066C2.45187 10.9467 2.02008 9.62424 2.02008 8.24142C2.02008 4.64372 4.96228 1.71675 8.57872 1.71675C12.1947 1.71675 15.1366 4.64372 15.1366 8.24142C15.1367 11.8387 12.1949 14.7652 8.57882 14.7652Z" fill="white"/>
</svg>
